<?xml version="1.0" standalone="no"?>
<!DOCTYPE svg PUBLIC "-//W3C//DTD SVG 20010904//EN"
 "http://www.w3.org/TR/2001/REC-SVG-20010904/DTD/svg10.dtd">
<svg version="1.0" xmlns="http://www.w3.org/2000/svg"
 width="336.000000pt" height="150.000000pt" viewBox="0 0 336.000000 150.000000"
 preserveAspectRatio="xMidYMid meet">
<metadata>
Created by potrace 1.16, written by Peter Selinger 2001-2019
</metadata>
<g transform="translate(0.000000,150.000000) scale(0.100000,-0.100000)"
fill="#000000" stroke="none">
<path d="M460 1180 c0 -5 -17 -8 -37 -7 -33 2 -38 -1 -37 -18 1 -16 -5 -20
-25 -20 -21 0 -27 -5 -29 -29 -2 -16 -10 -36 -19 -44 -12 -12 -12 -16 -1 -23
7 -5 10 -9 5 -9 -4 0 0 -11 9 -25 15 -23 15 -25 0 -19 -9 3 -16 1 -16 -5 0 -6
5 -11 11 -11 5 0 7 -5 3 -12 -4 -6 -3 -8 4 -4 6 3 13 2 17 -4 4 -6 10 -8 14
-6 3 3 7 -8 6 -22 0 -23 4 -27 29 -27 16 0 31 -6 33 -12 3 -7 11 -13 19 -13 9
0 13 4 10 9 -3 5 17 7 44 5 38 -3 50 0 50 10 0 8 -6 16 -12 19 -7 2 -1 4 14 4
39 1 59 20 52 49 -5 18 -2 24 11 24 14 0 16 5 10 23 -4 12 -7 37 -7 55 1 28
-4 34 -36 48 -31 13 -34 17 -19 23 16 6 17 9 4 19 -8 7 -21 10 -29 7 -9 -4
-22 1 -31 9 -17 18 -47 21 -47 6z m97 -96 c25 -26 38 -44 29 -41 -13 5 -16 0
-16 -24 0 -21 -10 -40 -30 -61 -28 -27 -36 -30 -77 -25 -60 6 -85 32 -93 96
-3 28 -4 49 -2 46 3 -3 12 4 20 16 17 25 47 38 90 38 27 1 42 -8 79 -45z"/>
<path d="M2647 1123 c-12 -12 -19 -13 -29 -5 -16 12 -32 5 -41 -20 -3 -9 -16
-18 -29 -20 -18 -2 -23 -9 -23 -31 0 -15 -6 -32 -14 -36 -12 -8 -12 -14 -1
-42 10 -23 11 -34 3 -36 -13 -5 -5 -43 9 -43 5 0 6 6 3 13 -4 6 0 4 8 -5 8
-10 17 -15 21 -11 4 4 4 0 0 -10 -9 -23 14 -49 37 -42 12 4 21 1 25 -9 3 -9
13 -16 21 -16 13 0 13 2 2 17 -10 12 -10 15 -1 9 7 -4 33 -9 57 -12 40 -4 45
-2 45 16 0 18 11 25 34 21 14 -3 26 22 21 40 -3 9 1 22 10 29 18 15 20 47 3
53 -10 3 -10 9 -1 24 12 22 2 48 -19 48 -7 0 -15 11 -18 25 -4 19 -13 25 -34
26 -15 1 -31 5 -34 11 -13 18 -39 21 -55 6z m91 -85 c12 -12 22 -29 22 -38 0
-9 6 -22 13 -29 10 -11 10 -13 0 -7 -9 5 -13 0 -13 -13 0 -11 -11 -33 -24 -48
-20 -23 -32 -28 -71 -28 -40 0 -51 5 -77 34 -26 29 -29 40 -25 73 12 91 105
120 175 56z"/>
<path d="M3042 718 c-7 -7 -12 -19 -12 -28 0 -8 -7 -26 -16 -38 -23 -34 -14
-65 25 -82 l34 -15 -6 -145 c-6 -195 -27 -283 -77 -331 -40 -38 -99 -59 -169
-59 -23 0 -41 -5 -41 -11 0 -20 121 0 180 29 46 23 59 36 82 82 34 68 49 172
49 338 0 67 4 122 8 122 13 0 19 35 9 54 -5 9 -16 16 -24 16 -12 0 -14 7 -9
28 7 34 -14 59 -33 40z"/>
<path d="M2048 632 c-18 -16 -41 -31 -50 -35 -21 -7 -24 -35 -5 -43 8 -3 25
-1 39 5 20 7 28 6 41 -10 29 -33 77 -18 77 23 0 10 3 18 8 18 4 0 40 -33 80
-72 49 -50 74 -83 78 -106 6 -31 3 -37 -45 -82 -35 -33 -78 -59 -137 -84 -47
-20 -90 -36 -95 -36 -5 0 -9 -4 -9 -10 0 -16 21 -12 89 15 155 61 251 147 235
212 -9 34 -171 196 -190 189 -8 -3 -14 -1 -14 4 0 15 -31 40 -50 40 -11 0 -34
-13 -52 -28z"/>
<path d="M419 522 c-154 -99 -100 -267 89 -277 58 -2 61 -2 17 4 -97 13 -160
63 -172 137 -7 41 31 102 82 134 65 40 165 19 228 -47 58 -62 53 -147 -12
-190 -41 -28 -29 -31 16 -3 68 41 81 127 29 194 -34 45 -88 69 -166 74 -58 3
-70 0 -111 -26z"/>
<path d="M1103 530 c-87 -45 -145 -164 -122 -252 5 -21 24 -49 44 -67 31 -27
44 -31 90 -31 62 0 146 29 182 61 18 18 26 20 35 11 9 -9 7 -17 -10 -35 -12
-13 -22 -32 -22 -44 0 -21 29 -53 48 -53 6 0 16 -25 23 -55 12 -53 24 -74 36
-62 3 3 0 29 -7 57 -11 47 -11 51 11 69 31 25 29 70 -6 121 -28 41 -30 54 -20
145 11 94 -46 145 -170 152 -57 4 -78 0 -112 -17z m158 -1 c19 -7 45 -21 58
-33 52 -46 63 -133 20 -156 -10 -6 -19 -21 -19 -33 0 -46 -87 -104 -169 -114
-146 -17 -203 148 -95 276 56 67 124 87 205 60z"/>
<path d="M2692 491 c-28 -10 -60 -25 -70 -33 -9 -9 -26 -18 -37 -20 -21 -3
-27 -28 -29 -104 -1 -56 40 -113 107 -150 46 -26 62 -29 137 -29 70 0 91 4
120 22 66 41 84 101 57 190 -14 49 -77 103 -146 128 -55 19 -74 19 -139 -4z
m115 -183 c11 -13 31 -18 65 -18 42 0 50 3 60 25 18 39 28 30 28 -26 0 -44 -4
-55 -33 -84 -81 -81 -260 -42 -324 70 -29 52 -30 77 -3 47 30 -32 93 -30 125
4 13 14 27 35 31 47 6 18 8 17 21 -14 7 -18 21 -41 30 -51z"/>
</g>
</svg>
